<svg width="64" height="64" viewBox="0 0 128 128" xmlns="http://www.w3.org/2000/svg" role="img" aria-label="Vasundhara icon">
  <defs>
    <linearGradient id="faviconGrad" x1="0%" y1="0%" x2="100%" y2="100%">
      <stop offset="0%" stop-color="#0ea5e9" />
      <stop offset="100%" stop-color="#10b981" />
    </linearGradient>
  </defs>
  <circle cx="64" cy="64" r="60" fill="url(#faviconGrad)" />
  <path d="M40 70c5 12 16 22 24 22s19-10 24-22c2-5-2-8-6-6-6 2-12 5-18 5s-12-3-18-5c-4-2-8 1-6 6z" fill="#ffffff" fill-opacity="0.92" />
  <path d="M50 54c7-14 20-23 30-26-2 12-8 26-21 34-6 3-13-1-9-8z" fill="#fef9c3" />
</svg>
