<svg width="128" height="128" viewBox="0 0 128 128" xmlns="http://www.w3.org/2000/svg" role="img" aria-labelledby="title desc">
  <title id="title">Vasundhara Logo</title>
  <desc id="desc">Stylised leaf cradled by a bowl to represent Vasundhara Sugam Seva</desc>
  <defs>
    <linearGradient id="circleGradient" x1="0%" y1="0%" x2="100%" y2="100%">
      <stop offset="0%" stop-color="#10b981" />
      <stop offset="60%" stop-color="#34d399" />
      <stop offset="100%" stop-color="#0ea5e9" />
    </linearGradient>
    <linearGradient id="leafGradient" x1="0%" y1="0%" x2="0%" y2="100%">
      <stop offset="0%" stop-color="#fef9c3" />
      <stop offset="100%" stop-color="#facc15" />
    </linearGradient>
  </defs>
  <circle cx="64" cy="64" r="60" fill="url(#circleGradient)" />
  <path d="M32 74c6 14 20 28 32 28s26-14 32-28c3-7-2-10-8-8-8 3-16 6-24 6s-16-3-24-6c-6-2-11 1-8 8z" fill="#fff" fill-opacity="0.9" />
  <path d="M44 60c9-18 26-30 40-34-3 16-11 34-28 44-8 4-17-2-12-10z" fill="url(#leafGradient)" />
</svg>
